<svg xmlns="http://www.w3.org/2000/svg" xmlns:xlink="http://www.w3.org/1999/xlink" version="1.1" width="500" height="500" viewBox="0 0 500 500" xml:space="preserve">
<defs>
</defs>
<g transform="matrix(4.1456 0 0 4.1456 249.9973 249.9977)" id="45405">
<path style="stroke: none; stroke-width: 0; stroke-dasharray: none; stroke-linecap: butt; stroke-dashoffset: 0; stroke-linejoin: miter; stroke-miterlimit: 4; is-custom-font: none; font-file-url: none; fill: rgb(255,174,95); fill-rule: nonzero; opacity: 1;" vector-effect="non-scaling-stroke" transform=" translate(-54.822, -46.7135)" d="M 46.713 5.093 c 11.254 0 21.472 4.497 28.971 11.779 a 29.853 29.853 0 0 0 -10.169 3.226 a 32.416 32.416 0 0 0 -18.802 -5.992 c -17.98 0 -32.607 14.628 -32.607 32.607 S 28.733 79.32 46.713 79.32 a 32.422 32.422 0 0 0 18.802 -5.991 a 29.864 29.864 0 0 0 10.168 3.227 c -7.498 7.282 -17.716 11.778 -28.97 11.778 c -22.95 0 -41.621 -18.671 -41.621 -41.621 c 0 -22.949 18.671 -41.62 41.621 -41.62 m 57.838 41.62 c 0 11.259 -7.482 20.797 -17.733 23.92 a 46.422 46.422 0 0 0 6.608 -23.92 a 46.415 46.415 0 0 0 -6.608 -23.918 c 10.251 3.123 17.733 12.66 17.733 23.918 m -25.231 0 c 0 -8.976 -3.646 -17.116 -9.535 -23.019 a 24.868 24.868 0 0 1 9.761 -1.985 c 0.146 0 0.287 0.019 0.433 0.022 a 41.403 41.403 0 0 1 8.355 24.982 a 41.396 41.396 0 0 1 -8.356 24.983 c -0.145 0.004 -0.286 0.022 -0.432 0.022 c -3.462 0 -6.761 -0.709 -9.761 -1.986 c 5.889 -5.901 9.535 -14.043 9.535 -23.019 M 60.875 70.294 a 27.356 27.356 0 0 1 -14.162 3.934 c -15.171 0 -27.515 -12.343 -27.515 -27.515 c 0 -15.171 12.344 -27.514 27.515 -27.514 a 27.353 27.353 0 0 1 14.162 3.934 c -6.954 5.518 -11.427 14.034 -11.427 23.58 c 0 9.547 4.473 18.062 11.427 23.581 m -6.334 -23.581 c 0 -8.425 4.201 -15.875 10.606 -20.407 c 5.572 5.038 9.081 12.32 9.081 20.407 c 0 8.088 -3.509 15.37 -9.082 20.409 c -6.404 -4.533 -10.605 -11.983 -10.605 -20.409 m -7.828 46.714 c 14.369 0 27.238 -6.526 35.814 -16.764 c 15.202 -1.502 27.117 -14.359 27.117 -29.95 c 0 -15.589 -11.915 -28.446 -27.116 -29.948 C 73.952 6.526 61.082 0 46.713 0 C 20.955 0 0 20.956 0 46.713 c 0 25.758 20.955 46.714 46.713 46.714" stroke-linecap="round"/>
</g>
</svg>
