<?xml version="1.0" encoding="utf-8"?>
<svg viewBox="87.824 149.935 109.644 93.427" xmlns="http://www.w3.org/2000/svg">
  <path fill="#FFAE5F" d="M46.713 5.093c11.254 0 21.472 4.497 28.971 11.779a29.853 29.853 0 0 0-10.169 3.226 32.416 32.416 0 0 0-18.802-5.992c-17.98 0-32.607 14.628-32.607 32.607S28.733 79.32 46.713 79.32a32.422 32.422 0 0 0 18.802-5.991 29.864 29.864 0 0 0 10.168 3.227c-7.498 7.282-17.716 11.778-28.97 11.778-22.95 0-41.621-18.671-41.621-41.621 0-22.949 18.671-41.62 41.621-41.62m57.838 41.62c0 11.259-7.482 20.797-17.733 23.92a46.422 46.422 0 0 0 6.608-23.92 46.415 46.415 0 0 0-6.608-23.918c10.251 3.123 17.733 12.66 17.733 23.918m-25.231 0c0-8.976-3.646-17.116-9.535-23.019a24.868 24.868 0 0 1 9.761-1.985c.146 0 .287.019.433.022a41.403 41.403 0 0 1 8.355 24.982 41.396 41.396 0 0 1-8.356 24.983c-.145.004-.286.022-.432.022-3.462 0-6.761-.709-9.761-1.986 5.889-5.901 9.535-14.043 9.535-23.019M60.875 70.294a27.356 27.356 0 0 1-14.162 3.934c-15.171 0-27.515-12.343-27.515-27.515 0-15.171 12.344-27.514 27.515-27.514a27.353 27.353 0 0 1 14.162 3.934c-6.954 5.518-11.427 14.034-11.427 23.58 0 9.547 4.473 18.062 11.427 23.581m-6.334-23.581c0-8.425 4.201-15.875 10.606-20.407 5.572 5.038 9.081 12.32 9.081 20.407 0 8.088-3.509 15.37-9.082 20.409-6.404-4.533-10.605-11.983-10.605-20.409m-7.828 46.714c14.369 0 27.238-6.526 35.814-16.764 15.202-1.502 27.117-14.359 27.117-29.95 0-15.589-11.915-28.446-27.116-29.948C73.952 6.526 61.082 0 46.713 0 20.955 0 0 20.956 0 46.713c0 25.758 20.955 46.714 46.713 46.714" transform="matrix(1, 0, 0, 1, 87.823715, 149.934723)"/>
</svg>