<svg xmlns="http://www.w3.org/2000/svg" xmlns:xlink="http://www.w3.org/1999/xlink" version="1.1" width="500" height="500" viewBox="0 0 500 500" xml:space="preserve">
<defs>
</defs>
<g transform="matrix(4.1498 0 0 4.1423 250.0003 250.0013)" id="414604">
<path style="stroke: none; stroke-width: 0; stroke-dasharray: none; stroke-linecap: butt; stroke-dashoffset: 0; stroke-linejoin: miter; stroke-miterlimit: 4; is-custom-font: none; font-file-url: none; fill: rgb(255,255,255); fill-rule: nonzero; opacity: 1;" vector-effect="non-scaling-stroke" transform=" translate(-59.049, -49.6625)" d="M 50.94 8.042 C 62.194 8.042 72.412 12.539 79.911 19.821 C 76.355 20.277 72.91 21.37 69.742 23.047 C 64.249 19.145 57.677 17.05 50.94 17.055 C 32.96 17.055 18.333 31.683 18.333 49.662 C 18.333 67.641 32.96 82.269 50.94 82.269 C 57.677 82.275 64.249 80.18 69.742 76.278 C 72.91 77.956 76.354 79.049 79.91 79.505 C 72.412 86.787 62.194 91.283 50.94 91.283 C 27.99 91.283 9.319 72.612 9.319 49.662 C 9.319 26.713 27.99 8.042 50.94 8.042 M 108.778 49.662 C 108.778 60.921 101.296 70.459 91.045 73.582 C 95.377 66.356 97.662 58.088 97.653 49.662 C 97.662 41.238 95.377 32.97 91.045 25.744 C 101.296 28.867 108.778 38.404 108.778 49.662 M 83.547 49.662 C 83.547 40.686 79.901 32.546 74.012 26.643 C 77.098 25.33 80.418 24.655 83.773 24.658 C 83.919 24.658 84.06 24.677 84.206 24.68 C 89.636 31.876 92.57 40.648 92.561 49.662 C 92.57 58.678 89.636 67.45 84.205 74.645 C 84.06 74.649 83.919 74.667 83.773 74.667 C 80.311 74.667 77.012 73.958 74.012 72.681 C 79.901 66.78 83.547 58.638 83.547 49.662 M 65.102 73.243 C 60.828 75.822 55.931 77.183 50.94 77.177 C 35.769 77.177 23.425 64.834 23.425 49.662 C 23.425 34.491 35.769 22.148 50.94 22.148 C 55.931 22.143 60.828 23.504 65.102 26.082 C 58.148 31.6 53.675 40.116 53.675 49.662 C 53.675 59.209 58.148 67.724 65.102 73.243 M 58.768 49.662 C 58.768 41.237 62.969 33.787 69.374 29.255 C 74.946 34.293 78.455 41.575 78.455 49.662 C 78.455 57.75 74.946 65.032 69.373 70.071 C 62.969 65.538 58.768 58.088 58.768 49.662 M 50.94 96.376 C 65.309 96.376 78.178 89.85 86.754 79.612 C 101.956 78.11 113.871 65.253 113.871 49.662 C 113.871 34.073 101.956 21.216 86.755 19.714 C 78.179 9.475 65.309 2.949 50.94 2.949 C 25.182 2.949 4.227 23.905 4.227 49.662 C 4.227 75.42 25.182 96.376 50.94 96.376" stroke-linecap="round"/>
</g>
</svg>
