<svg xmlns="http://www.w3.org/2000/svg" viewBox="0 0 386.49 101.29"><defs><style>.cls-1{fill:#465267;}.cls-2{fill:#e50202;}.cls-3{fill:#fd8f02;}.cls-4{fill:#fe6a01;}.cls-5{fill:#fe4801;}</style></defs><title>Asset 1</title><g id="Layer_2" data-name="Layer 2"><g id="Layer_1-2" data-name="Layer 1"><path class="cls-1" d="M192.07,66.77c0,2.15,0,4.22,0,6.29,0,.66-.49.63-.9.73a58.44,58.44,0,0,1-17.37,1.47,29.34,29.34,0,0,1-8.33-1.6,18.16,18.16,0,0,1-12-12.75,35.78,35.78,0,0,1,0-19.77,16.92,16.92,0,0,1,13.13-12.6,31.39,31.39,0,0,1,15,0C188.67,30.29,192.64,35,194,42a40.12,40.12,0,0,1,.22,11c-.08,1-.63.91-1.3.91-10.28,0-20.56,0-30.83,0-1.23,0-1.52.3-1.45,1.51C161,62.61,165.46,67.3,173,68.2a50.85,50.85,0,0,0,17.62-1.08ZM173.32,46.91c4,0,8,0,12,0,.86,0,1.14-.25,1-1.08s-.14-1.59-.29-2.37c-.71-3.71-2.46-6.72-6.15-8.08a16.62,16.62,0,0,0-12.73.35c-4.53,2-6,6-6.52,10.54-.09.85.54.62,1,.62C165.49,46.92,169.4,46.91,173.32,46.91Z"/><path class="cls-1" d="M211.52,33.75A25.67,25.67,0,0,1,223.72,28a24.89,24.89,0,0,1,11.39.71c5.92,1.82,9,6.08,10,12a32.13,32.13,0,0,1,.38,5.38c0,9.32,0,18.64,0,28,0,1.14-.34,1.4-1.4,1.36-2-.08-3.92-.07-5.88,0-.94,0-1.2-.24-1.2-1.19,0-9.4,0-18.8,0-28.2a19.85,19.85,0,0,0-.31-4.06,8.52,8.52,0,0,0-7.81-7.12c-6.18-.78-11.25,1.52-15.76,5.51-.52.46-.42,1-.42,1.53,0,10.72,0,21.44,0,32.16,0,1.09-.25,1.43-1.37,1.38-2-.1-4.08-.06-6.12,0-.75,0-.94-.23-.94-1q0-22.92,0-45.83c0-.73.19-1,.94-1,1.32.06,2.64.06,4,0,.67,0,.9.26,1,.84C210.65,30.2,211.07,31.9,211.52,33.75Z"/><path class="cls-1" d="M320.85,64.87c1.2-3.2,2.32-6.14,3.42-9.08q5.08-13.56,10.13-27.13a1.29,1.29,0,0,1,1.47-1c2.16.07,4.32,0,6.48,0,1.35,0,1.35,0,.84,1.28L327.51,67.8c-1.39,3.44-2.72,6.91-4.2,10.31A27.48,27.48,0,0,1,314.14,90a21.91,21.91,0,0,1-5.31,2.73c-.58.21-.84.12-1.12-.42-.77-1.49-1.55-3-2.4-4.42-.4-.69-.27-1,.44-1.3A22,22,0,0,0,315.82,77a2.89,2.89,0,0,0,.19-2.68Q307.33,51.69,298.74,29c-.52-1.36-.52-1.36,1-1.36,2.16,0,4.32,0,6.48,0a1.39,1.39,0,0,1,1.6,1.13Q314,46.24,320.4,63.66Z"/><path class="cls-1" d="M349.72,65.84A54.77,54.77,0,0,0,362,68.33a32.87,32.87,0,0,0,10.38-.39c2.41-.59,4.55-1.64,5.37-4.24,1.35-4.26-1.17-7.89-5.78-8.18-2.75-.17-5.51-.07-8.27-.11a25.73,25.73,0,0,1-6.88-.83,11.53,11.53,0,0,1-8.8-10.48,19.42,19.42,0,0,1,.07-5.62,11.35,11.35,0,0,1,7.11-8.7,28.56,28.56,0,0,1,10.64-2.07,65.3,65.3,0,0,1,17.7,1.93c.83.2,1.2.5,1.15,1.43-.09,1.71-.08,3.44,0,5.16,0,.93-.3.94-1,.72A52,52,0,0,0,365,34.61a15.64,15.64,0,0,0-5.24,1.13q-4.66,2-3.79,7.16c.45,2.65,2.52,4.46,5.62,4.64,2.67.15,5.35.07,8,.11a29.4,29.4,0,0,1,7.48.85C382.76,50,386,54,386.42,59.88a17.72,17.72,0,0,1-.33,5.48c-1.08,4.32-4,6.87-8,8.35a31.4,31.4,0,0,1-10.37,1.65,68.14,68.14,0,0,1-16.63-1.88c-1.14-.26-1.44-.74-1.38-1.84C349.79,69.77,349.72,67.89,349.72,65.84Z"/><path class="cls-1" d="M292.14,37.19a58.08,58.08,0,0,0-9.9-2.22,39.21,39.21,0,0,0-12.89.11,11.63,11.63,0,0,0-2.16.69,5.85,5.85,0,0,0-3.78,6.82c.51,3,2.47,4.77,5.73,4.94,2.67.14,5.36.07,8,.1a30.21,30.21,0,0,1,6,.51c7.11,1.49,10.63,5.72,10.84,13q.27,9.44-8.62,12.62a30,30,0,0,1-9.06,1.55,64.52,64.52,0,0,1-18.06-1.95c-.78-.19-1.13-.47-1.09-1.35.08-1.68.07-3.36,0-5,0-.94.14-1.15,1.11-.85A51.89,51.89,0,0,0,273,68.51a24.14,24.14,0,0,0,7.83-.82c3.6-1.16,5.17-3.65,4.61-7.32-.44-2.88-2.61-4.7-6.08-4.87-2.71-.13-5.44-.07-8.16-.1a28.1,28.1,0,0,1-5.49-.48c-6.31-1.31-9.76-5.24-10.27-11.68a17.51,17.51,0,0,1,.29-5.37,11.34,11.34,0,0,1,6.9-8.06,28.21,28.21,0,0,1,10.63-2.11,64.82,64.82,0,0,1,17.82,1.94c.78.19,1.12.45,1.08,1.34C292.09,33,292.14,35.06,292.14,37.19Z"/><path class="cls-1" d="M133.9,75.37a39.92,39.92,0,0,1-12-1.39c-7.43-2.21-12.05-7.11-13.88-14.61A34.4,34.4,0,0,1,107.92,43c1.94-8,7.31-12.52,15.13-14.29,7.14-1.62,14.29-1.18,21.43.19.59.11.77.39.75,1,0,1.72,0,3.44,0,5.16,0,.77-.24.81-.92.67a48.34,48.34,0,0,0-16.21-.88c-7.92,1.12-12,5.61-12.56,13.59a28.17,28.17,0,0,0,.6,8.7c1.69,7,6.38,11,13.59,11.34a56,56,0,0,0,14.55-1.07c.8-.17,1,0,.94.77,0,1.64-.06,3.28,0,4.92,0,.77-.26,1-1,1.17A64.28,64.28,0,0,1,133.9,75.37Z"/><path class="cls-2" d="M64.69,69.23q-10,15.61-20,31.24c-.61.95-1,1-2,.47Q24.16,90.17,5.59,79.49l-1.47-.88,31.45,1.5c2.79.13,5.59.24,8.38.39A2.7,2.7,0,0,0,45.51,80q9-5.21,18-10.39c.34-.2.64-.66,1.16-.38Z"/><path class="cls-3" d="M84.17,22.75,63,21.75c-6.15-.29-12.3-.56-18.45-.86a2.74,2.74,0,0,0-1.56.51L25.4,31.57l-1.53.85c.35-.63.51-1,.71-1.27Q34.36,15.92,44.13.7c.38-.59.59-1,1.42-.47q18.9,11,37.85,21.89C83.67,22.26,84,22.36,84.17,22.75Z"/><path class="cls-4" d="M39.62,2.5c0,.58-.37.92-.62,1.3Q28.94,19.48,18.86,35.14a3.5,3.5,0,0,0-.58,2c0,6.91,0,13.83,0,20.74q0,.58,0,1.15l-.19.05-2.83-5.46Q8.09,39.7.88,25.78c-.38-.74-.29-1,.43-1.45Q20,13.59,38.65,2.8C38.91,2.65,39.15,2.38,39.62,2.5Z"/><path class="cls-5" d="M.13,30,7.47,44.25Q12.76,54.51,18,64.79a4.06,4.06,0,0,0,1.69,1.75c6.26,3.59,12.51,7.21,19.09,11-.71,0-1.07,0-1.44,0Q19.19,76.7,1,75.85c-.67,0-1-.15-1-.94Q0,52.67,0,30.43A3.68,3.68,0,0,1,.13,30Z"/><path class="cls-2" d="M48.85,99.28c-.29-.48.16-.74.35-1Q59,82.92,68.86,67.62c.33-.51.48-1,1.32-.48,5.5,3.24,11,6.4,16.57,9.59.13.07.24.16.47.32l-1.3.76L49.85,98.64c-.34.2-.68.41-1,.62Z"/><path class="cls-3" d="M50,23.78l34.9,1.66c-.12.44-.43.49-.66.63Q77,30.25,69.76,34.44a1.2,1.2,0,0,1-1.41.11q-9-5.25-18-10.45C50.26,24.07,50.23,24,50,23.78Z"/><path class="cls-2" d="M64.71,69.25l-.09-.17c.19,0,0,.11.07.15Z"/><path class="cls-2" d="M48.84,99.26l-.19,0c.06-.19.13,0,.2,0Z"/></g></g></svg>